<svg width="22" height="22" viewBox="0 0 22 22" fill="none" xmlns="http://www.w3.org/2000/svg">
<path d="M15.4417 3H6.49167C5.66784 3 5 3.72381 5 4.61667V17.55C5 18.4429 5.66784 19.1667 6.49167 19.1667H15.4417C16.2655 19.1667 16.9333 18.4429 16.9333 17.55V4.61667C16.9333 3.72381 16.2655 3 15.4417 3Z" stroke="black" stroke-width="2" stroke-linecap="round" stroke-linejoin="round"/>
<path d="M10.9667 15.9333C12.6144 15.9333 13.9501 14.4857 13.9501 12.7C13.9501 10.9143 12.6144 9.46667 10.9667 9.46667C9.31908 9.46667 7.9834 10.9143 7.9834 12.7C7.9834 14.4857 9.31908 15.9333 10.9667 15.9333Z" stroke="black" stroke-width="2" stroke-linecap="round" stroke-linejoin="round"/>
<path d="M10.9667 6.23334H10.9755" stroke="black" stroke-width="2" stroke-linecap="round" stroke-linejoin="round"/>
</svg>
